HIERARCHY
ROOT Hips
{
  OFFSET 0.0 0.0 0.0
  CHANNELS 6 XPOSITION YPOSITION ZPOSITION ZROTATION XROTATION YROTATION 
  JOINT LeftUpLeg
  {
    OFFSET 0.089458 -0.0866707 0.00101652
    CHANNELS 3 ZROTATION XROTATION YROTATION 
    JOINT LeftLeg
    {
      OFFSET 0.0 -0.444227 0.013727
      CHANNELS 3 ZROTATION XROTATION YROTATION 
      JOINT LeftFoot
      {
        OFFSET -0.00253549 -0.420924 -0.0146059
        CHANNELS 3 ZROTATION XROTATION YROTATION 
        End Site
        {
          OFFSET -0.0004 -0.0441509 0.084991
        }
      }
    }
  }
  JOINT Spine
  {
    OFFSET 0.0 0.118905 0.0
    CHANNELS 3 ZROTATION XROTATION YROTATION 
    JOINT Spine1
    {
      OFFSET 0.0 0.256574 0.00127663
      CHANNELS 3 ZROTATION XROTATION YROTATION 
      End Site
      {
        OFFSET -0.0029 0.2150836 0.02525291
      }
      JOINT RightArm
      {
        OFFSET -0.162727 -0.05365632 0.00102123
        CHANNELS 3 ZROTATION XROTATION YROTATION 
        JOINT RightForeArm
        {
          OFFSET -0.26364 0.00099144 -0.0142434
          CHANNELS 3 ZROTATION XROTATION YROTATION 
          End Site
          {
            OFFSET -0.220324 0.00085362 0.0102216
          }
        }
      }
      JOINT LeftArm
      {
        OFFSET 0.162727 -0.0536563199 0.00102123
        CHANNELS 3 ZROTATION XROTATION YROTATION 
        JOINT LeftForeArm
        {
          OFFSET 0.262597 0.00099144 -0.0142434
          CHANNELS 3 ZROTATION XROTATION YROTATION 
          End Site
          {
            OFFSET 0.220902 0.00085362 0.0102216
          }
        }
      }
    }
  }
  JOINT RightUpLeg
  {
    OFFSET -0.089458 -0.0866707 0.00101652
    CHANNELS 3 ZROTATION XROTATION YROTATION 
    JOINT RightLeg
    {
      OFFSET 0.0 -0.444227 0.013727
      CHANNELS 3 ZROTATION XROTATION YROTATION 
      JOINT RightFoot
      {
        OFFSET 0.00253549 -0.420924 -0.0146059
        CHANNELS 3 ZROTATION XROTATION YROTATION 
        End Site
        {
          OFFSET 0.0004 -0.0441509 0.084991
        }
      }
    }
  }
}
MOTION
Frames: 8
Frame Time: 0.033333
1.95769 0.989213923766 0.039193 -4.11275998891 -0.490682977769 -91.3519974695 -0.982472019296 2.24875995639 1.85311996806 0.344178008073 9.18191038616 17.1548994873 -12.2427947759 -34.1128573002 -21.4409251538 0.45458697547 8.74931010979 -0.0634835000656 -0.0708578031824 -3.13563995644 0.0566493021615 78.7370683745 -20.2261299061 6.31072084023 8.2039801225 41.0901994807 6.84979992378 -72.9281564099 -9.83647217376 0.876585144058 -4.09030019248 36.1186004065 -14.7956001763 -0.556324991035 3.08775990347 -4.05542012394 -0.258608997945 10.5633998156 -8.23215977547 9.77110128699 -37.0968303448 17.1388468352 
1.95769 0.989213923766 0.0392908 -4.11760985011 -0.48626597981 -91.3734989051 -0.989096022131 2.25689001594 1.8531299999 0.345110995906 9.17961031996 17.2059005099 -12.256942659 -34.1098451867 -21.4745877411 0.513819016282 8.78625033415 -0.0433395012899 -0.170263996167 -3.23014992431 0.0949934972442 78.7212701469 -20.2074237255 6.21803261188 8.18582035704 41.0038010028 6.89960993208 -72.9074472763 -9.82283740863 0.910384922135 -4.07481999562 36.2078982997 -14.796600799 -0.556989973983 3.08975004984 -4.05542012394 -0.259507994914 10.5633998156 -8.23215977547 9.78728029758 -37.0901504197 17.1656621579 
1.95769 0.989213923766 0.039424 -4.12004011679 -0.488125979059 -91.387002189 -1.00142003127 2.25685992042 1.85043997258 0.343789994631 9.19231020295 17.2378999461 -12.2630257962 -34.1193801308 -21.4941698935 0.592700017233 8.83930041343 -0.0288832991899 -0.331608005401 -3.3699500228 0.137599003327 78.6950148997 -20.0796701598 6.07158780654 8.14127983969 40.8164011026 7.02959995793 -72.8703047076 -9.87094157718 0.955143685375 -4.06482999018 36.3734006135 -14.7711002878 -0.562174994698 3.09074000038 -4.05542994234 -0.265174010357 10.5633998156 -8.23270021418 9.80373678461 -37.0854068534 17.1843171121 
1.95771 0.989213923766 0.0395518 -4.0961698863 -0.500940000911 -91.3840993586 -1.0189999777 2.22340992273 1.83731000112 0.338981007847 9.21063986936 17.2261007943 -12.2433625354 -34.1354379056 -21.4693028822 0.61126399115 8.8436102628 -0.0342604990161 -0.405117996385 -3.42749991609 0.143420005367 78.7223902979 -20.0724540649 6.05996495901 8.12493007436 40.9261998086 7.03319989451 -72.8657148205 -9.98859073186 0.975708317749 -4.06466990762 36.4894011313 -14.7370996061 -0.576883006663 3.06249994293 -4.05531980554 -0.275910987691 10.5633998156 -8.23064005837 9.81370544571 -37.0797651171 17.179908225 
1.95779 0.989203923766 0.0396999 -4.05799980101 -0.510696019006 -91.3839969058 -1.03407004305 2.17122002039 1.82234996585 0.332640004296 9.22045997384 17.2194003788 -12.2166812552 -34.1398058115 -21.4416867199 0.58299101005 8.81642013348 -0.0421686007599 -0.354194000243 -3.39735999883 0.12524700642 78.8175143425 -20.3197922902 6.21599764239 8.17629992711 41.41910041 6.81140017338 -72.9126382201 -10.0435063066 0.977506151604 -4.04788002198 36.4845004706 -14.7498003428 -0.594221975479 3.01427005621 -4.05556014282 -0.280012996535 10.5637003439 -8.21947013776 9.81595172417 -37.0697110787 17.1670230731 
1.9579 0.989163923766 0.0398625 -4.0423300664 -0.503295989288 -91.3842018115 -1.03381999409 2.14040007243 1.82654007346 0.324553006958 9.22559029968 17.2345002195 -12.2081768159 -34.131845226 -21.4598772212 0.57718001317 8.80105989181 -0.042824098817 -0.279632987221 -3.33210992102 0.112090994861 78.9166613685 -20.6008955557 6.39398938395 8.26226981065 41.8730006313 6.53854009245 -72.969356111 -9.98946755739 0.954784139948 -4.01386994878 36.4111988804 -14.8053007525 -0.598867998219 2.98949994829 -4.05965014547 -0.271591986938 10.5654002073 -8.22588966181 9.82479340405 -37.0591481911 17.1798791967 
1.95797 0.989103923766 0.0400038 -4.05312005774 -0.488714015658 -91.3661974328 -1.02655000477 2.14130998169 1.83593008946 0.32032501314 9.23053023399 17.2426998616 -12.2127299907 -34.1247828104 -21.498754658 0.604603009244 8.75993020018 -0.0536493983677 -0.274551993489 -3.21224010109 0.102193997393 78.9726347687 -20.6957976191 6.50960954556 8.32735041438 42.0015003953 6.39647984168 -72.9808581495 -9.97399034873 0.879978840941 -3.99717013626 36.3323989879 -14.8408006607 -0.599117993815 2.99109992011 -4.07625988487 -0.252929001959 10.5807997225 -8.2474303709 9.83750865496 -37.0606952289 17.2060268684 
1.95801 0.989093923766 0.0401188 -4.05958013603 -0.489967995701 -91.3385010157 -1.03961999864 2.14432999252 1.81737993601 0.330045012659 9.23384031442 17.2386000405 -12.2112299104 -34.1251004142 -21.5037048376 0.619122017068 8.66361001873 -0.0865172991853 -0.338917001504 -3.04023992953 0.0815003985079 79.0095724318 -20.6414378511 6.59734631366 8.37416026208 41.9198010875 6.35630979162 -72.9333132027 -10.0912962864 0.783518907418 -3.99793981321 36.2376984151 -14.8486007367 -0.619715016226 2.98012999597 -4.10911992497 -0.231379995251 10.6236002492 -8.24305990361 9.84170239112 -37.0840510608 17.2128895009 
